<svg xmlns="http://www.w3.org/2000/svg" viewBox="0 0 512 512" width="512" height="512">
  <defs>
    <clipPath id="tile"><rect x="16" y="16" width="480" height="480" rx="108"/></clipPath>
    <pattern id="argyle" width="120" height="160" patternUnits="userSpaceOnUse">
      <rect width="120" height="160" fill="#0C0517"/>
      <polygon points="60,0 120,80 60,160 0,80" fill="#2A1350"/>
      <polygon points="0,0 60,80 0,160" fill="#1A0C31"/>
      <polygon points="120,0 60,80 120,160" fill="#1A0C31"/>
      <g stroke="#7C3AED" stroke-width="2" opacity="0.30" stroke-dasharray="6 7">
        <path d="M60 -80 L200 80 M60 -80 L-80 80 M60 80 L200 240 M60 80 L-80 240 M60 240 L200 400 M60 240 L-80 400"/>
      </g>
    </pattern>
  </defs>
  <g clip-path="url(#tile)"><rect x="16" y="16" width="480" height="480" fill="url(#argyle)"/></g>
  <rect x="16" y="16" width="480" height="480" rx="108" fill="none" stroke="#2BD3D3" stroke-width="6"/>
  <path d="M160 168 h192 a28 28 0 0 1 28 28 v92 a28 28 0 0 1 -28 28 H236 l-52 44 v-44 h-24 a28 28 0 0 1 -28 -28 v-92 a28 28 0 0 1 28 -28 z" fill="#7C3AED"/>
</svg>
